<?xml version="1.0" standalone="no"?>
<!DOCTYPE svg PUBLIC "-//W3C//DTD SVG 20010904//EN"
 "http://www.w3.org/TR/2001/REC-SVG-20010904/DTD/svg10.dtd">
<svg version="1.0" xmlns="http://www.w3.org/2000/svg"
 width="853.000000pt" height="930.000000pt" viewBox="0 0 853.000000 930.000000"
 preserveAspectRatio="xMidYMid meet">
<metadata>
Created by potrace 1.15, written by Peter Selinger 2001-2017
</metadata>
<g transform="translate(0.000000,930.000000) scale(0.100000,-0.100000)"
fill="#000000" stroke="none">
<path d="M6312 7945 c-29 -8 -69 -24 -90 -35 l-37 -19 70 6 c125 11 208 8 262
-11 44 -14 166 -85 183 -105 3 -3 32 -31 65 -61 l59 -55 -54 63 c-89 106 -193
180 -299 212 -73 23 -88 24 -159 5z"/>
<path d="M5130 5336 c0 -8 -14 -25 -31 -37 -20 -14 -29 -28 -26 -40 3 -12 0
-16 -9 -12 -9 3 -14 -2 -14 -16 0 -12 -6 -21 -13 -21 -29 0 -46 -44 -77 -206
-30 -158 -80 -441 -80 -456 0 -4 -20 0 -46 9 -25 8 -47 13 -49 11 -6 -6 -32
-239 -45 -398 -19 -252 -30 -564 -30 -895 l0 -330 -47 100 c-51 109 -143 278
-149 272 -6 -5 35 -166 51 -202 7 -16 16 -48 20 -70 4 -22 11 -46 17 -52 6 -7
8 -20 4 -28 -3 -8 -2 -15 2 -15 5 0 14 -35 20 -77 7 -43 15 -89 18 -103 4 -21
0 -28 -23 -37 l-28 -11 36 -1 c83 -2 120 -102 60 -162 -16 -16 -39 -29 -50
-29 -12 0 -21 -6 -21 -12 0 -15 20 -48 20 -34 0 5 6 3 14 -3 7 -6 20 -9 29 -6
17 7 22 -12 42 -187 8 -66 16 -122 18 -124 2 -2 9 45 16 104 7 59 19 145 27
191 13 76 13 89 -1 124 -18 44 -13 71 20 107 17 19 27 54 43 150 29 171 50
276 67 335 7 28 17 73 21 100 3 28 10 55 14 60 8 11 13 87 30 410 15 291 75
944 95 1035 3 14 10 66 15 115 5 50 14 113 21 140 6 28 16 92 22 143 5 50 14
92 19 92 4 0 8 18 8 40 0 29 -4 40 -15 40 -8 0 -15 -6 -15 -14z"/>
<path d="M3076 2616 c-16 -16 -18 -29 -13 -97 l6 -79 -32 -2 c-18 -1 -41 -2
-52 -2 -20 -1 -20 -7 -17 -276 4 -299 8 -397 18 -420 9 -19 21 28 23 86 0 22
8 49 16 60 8 10 15 26 15 34 0 21 56 136 80 167 25 33 25 65 0 318 -26 257
-21 234 -44 211z"/>
<path d="M4740 2110 c-7 -59 -5 -150 2 -150 4 0 6 -13 5 -30 -1 -16 -5 -30 -9
-30 -3 0 -4 -33 -2 -72 3 -40 6 -109 7 -153 l3 -80 40 3 c21 2 64 8 94 15 l55
12 -55 3 c-101 4 -100 4 -100 77 0 60 -27 382 -34 415 -2 8 -5 4 -6 -10z"/>
</g>
</svg>
